<svg fill="currentColor" viewBox="0 0 24 24" xmlns="http://www.w3.org/2000/svg">
  <path
    d="M248.36 263.428a10.623 10.623 0 0 0 15.04 0L508.733 18.095c4.053-4.267 3.947-10.987-.213-15.04a10.763 10.763 0 0 0-14.827 0l-237.76 237.76L18.173 3.054c-4.266-4.16-10.986-4.053-15.146.214a10.763 10.763 0 0 0 0 14.827L248.36 263.428z" />
  <path
    d="M508.627 248.388c-4.267-4.053-10.773-4.053-14.933 0l-237.76 237.76-237.76-237.76c-4.267-4.053-10.987-3.947-15.04.213a10.763 10.763 0 0 0 0 14.827l245.333 245.333a10.623 10.623 0 0 0 15.04 0L508.84 263.428c4.053-4.267 3.947-10.987-.213-15.04z" />
</svg>
